<svg xmlns="http://www.w3.org/2000/svg" width="239.999" height="61.261" viewBox="0 0 239.999 61.261"><g transform="translate(-9298.094 2355)"><path d="M285.206,94.562c.892-2.873,1.74-5.592,2.58-8.314q2.376-7.689,4.747-15.38c.4-1.306.414-1.3,1.808-1.3,1.171,0,2.343.021,3.514-.01.469-.012.52.118.378.53q-1.728,5.027-3.429,10.063-3.431,10.122-6.845,20.249a.752.752,0,0,1-.876.623c-1.328-.039-2.659-.042-3.987.007a.831.831,0,0,1-.968-.679q-2.234-6.706-4.511-13.4-2.843-8.408-5.7-16.81c-.154-.451-.169-.6.38-.587,1.528.033,3.058.027,4.586,0a.554.554,0,0,1,.654.468q2.232,7.239,4.494,14.469,1.509,4.847,3.019,9.694C285.071,94.256,285.106,94.322,285.206,94.562Z" transform="translate(9075.321 -2412.002)" fill="#0359af"/><path d="M1220.877,81.75c.311-.706.669-1.4.925-2.122a5.789,5.789,0,0,1,3.873-3.646,9.143,9.143,0,0,1,7.057.345,6.06,6.06,0,0,1,3.615,5.817c.042,5.455.009,10.91.021,16.365,0,.39-.109.517-.505.51-1.289-.022-2.579-.033-3.868,0-.478.014-.55-.158-.549-.578q.019-6.789,0-13.579a12.877,12.877,0,0,0-.163-2.187c-.406-2.341-1.617-3.423-4-3.655-4.09-.4-6.563,2.564-6.632,6.3-.078,4.263-.016,8.528-.025,12.792,0,.944.167.91-.875.9-1.17-.012-2.341-.016-3.511.008-.4.008-.5-.119-.5-.507q.015-15.425,0-30.85c0-.419.127-.547.54-.54,1.23.022,2.462.034,3.692,0,.523-.017.667.124.664.658-.022,4.4-.012,8.806-.01,13.209,0,.218.01.436.015.654C1220.724,81.679,1220.71,81.9,1220.877,81.75Z" transform="translate(8301.725 -2410.006)" fill="#0359af"/><path d="M840.181,87.42c0,4.338-.008,8.675.011,13.013,0,.46-.1.611-.579.6-1.348-.033-2.7-.047-4.044,0-.581.021-.731-.139-.73-.715q.027-12.889.01-25.778c0-.892.122-.8-.78-.8-2.855,0-5.71-.012-8.565.011-.476,0-.606-.131-.59-.6.035-1.011.036-2.025,0-3.036-.016-.451.117-.556.559-.555q9.287.023,18.574.01c1.885,0,3.771.01,5.655-.008.382,0,.509.089.5.489-.031.941-.008,1.884-.008,2.826,0,.856,0,.856-.833.856-2.855,0-5.71.012-8.565-.011-.492,0-.624.134-.621.622.018,4.357.01,8.714.01,13.072Z" transform="translate(8622.036 -2412.011)" fill="#0359af"/><path d="M615.283,134.568c-.432.7-.873,1.4-1.3,2.108a7.5,7.5,0,0,1-6.882,3.776,6.965,6.965,0,0,1-6.376-3.422,9.243,9.243,0,0,1-1.25-5c-.007-4.85,0-9.7-.01-14.549,0-.416.117-.582.575-.569,1.249.035,2.5.038,3.751,0,.5-.015.576.175.574.613q-.021,6.878,0,13.755a6.533,6.533,0,0,0,.618,3,4.042,4.042,0,0,0,2.86,2.207,5.651,5.651,0,0,0,7.221-5.348c.132-1.644.042-3.292.051-4.938q.021-4.347-.007-8.694c0-.472.129-.605.6-.592,1.17.033,2.343.04,3.512,0,.561-.02.74.128.735.714-.027,3.771-.014,7.542-.014,11.314,0,3.434-.01,6.868.012,10.3,0,.479-.138.6-.6.588-1.11-.031-2.222-.038-3.331,0-.523.019-.626-.178-.618-.651.025-1.525.009-3.051.009-4.577Z" transform="translate(8806.799 -2450.815)" fill="#0359af"/><path d="M1094.651,121.146c-.654,0-1.31-.021-1.963.008a.541.541,0,0,1-.624-.461c-1.343-4.257-6.748-4.363-8.829-2.264a6.472,6.472,0,0,0-1.747,3.315,14.527,14.527,0,0,0,.445,8.188,5.915,5.915,0,0,0,2.964,3.35c2.13,1.053,6.183.122,7.142-3.193.11-.38.25-.5.638-.493,1.279.024,2.56.027,3.839,0,.491-.012.552.131.433.579a10.057,10.057,0,0,1-8.376,7.2,11.619,11.619,0,0,1-6.625-.884,9.26,9.26,0,0,1-4.927-6.167,18.123,18.123,0,0,1,.027-10.434c1.183-3.893,3.965-5.937,7.926-6.438a12.615,12.615,0,0,1,7.638,1.139,8.44,8.44,0,0,1,4.48,6.032c.084.4.007.543-.417.526C1096,121.126,1095.326,121.145,1094.651,121.146Z" transform="translate(8416.038 -2447.866)" fill="#0359af"/><path d="M554.2,83.116c0,5.079-.009,10.158.013,15.237,0,.562-.164.7-.7.681-1.248-.037-2.5-.02-3.746,0-.364.006-.453-.108-.453-.471q.013-15.443,0-30.886c0-.393.088-.556.524-.545,1.249.03,2.5.028,3.749,0,.479-.01.629.126.627.626C554.194,72.878,554.2,78,554.2,83.116Z" transform="translate(8847.904 -2410.018)" fill="#0359af"/><path d="M103.522,150.631a4.277,4.277,0,0,1,8.555-.08,4.277,4.277,0,1,1-8.555.08Z" transform="translate(9213.252 -2474.915)" fill="#0359af"/><path d="M69.292,107.828a4.279,4.279,0,1,1-4.23-4.325A4.292,4.292,0,0,1,69.292,107.828Z" transform="translate(9248.319 -2439.826)" fill="#0359af"/><path d="M107.783,60.878a4.268,4.268,0,1,1-4.254,4.343A4.284,4.284,0,0,1,107.783,60.878Z" transform="translate(9213.247 -2404.892)" fill="#0359af"/><path d="M146.333,107.718a4.258,4.258,0,1,1,4.078,4.334A4.29,4.29,0,0,1,146.333,107.718Z" transform="translate(9178.167 -2439.818)" fill="#0359af"/><path d="M114.309,222.963a2.842,2.842,0,1,1-2.869,2.852A2.857,2.857,0,0,1,114.309,222.963Z" transform="translate(9206.764 -2537.729)" fill="#255b99"/><path d="M2.807,117.123a2.849,2.849,0,1,1,2.882-2.83A2.848,2.848,0,0,1,2.807,117.123Z" transform="translate(9298.094 -2446.318)" fill="#0359af"/><path d="M114.3,5.679a2.806,2.806,0,0,1-2.841-2.865,2.852,2.852,0,0,1,5.7.065A2.867,2.867,0,0,1,114.3,5.679Z" transform="translate(9206.746 -2355)" fill="#0359af"/><path d="M151.465,185.767a2.831,2.831,0,0,1,2.776,3,2.849,2.849,0,1,1-2.776-3Z" transform="translate(9176.354 -2507.244)" fill="#255b99"/><path d="M225.761,117.124a2.824,2.824,0,0,1-2.84-2.884,2.861,2.861,0,0,1,2.806-2.814,2.849,2.849,0,1,1,.035,5.7Z" transform="translate(9115.398 -2446.318)" fill="#0359af"/><path d="M188.666,154.356a2.839,2.839,0,1,1,2.806-2.848A2.828,2.828,0,0,1,188.666,154.356Z" transform="translate(9145.829 -2476.849)" fill="#0359af"/><path d="M151.365,42.812a2.831,2.831,0,0,1-2.829-2.84,2.851,2.851,0,0,1,5.7-.006A2.812,2.812,0,0,1,151.365,42.812Z" transform="translate(9176.361 -2385.433)" fill="#0359af"/><path d="M40.113,74.288a2.852,2.852,0,1,1-.087,5.7,2.852,2.852,0,0,1,.087-5.7Z" transform="translate(9267.563 -2415.883)" fill="#0359af"/><path d="M191.472,77.206a2.841,2.841,0,1,1-5.682,0,2.841,2.841,0,0,1,5.682,0Z" transform="translate(9145.829 -2415.965)" fill="#0359af"/><path d="M37.254,151.514a2.787,2.787,0,0,1,2.808-2.835,2.84,2.84,0,1,1,.051,5.681A2.8,2.8,0,0,1,37.254,151.514Z" transform="translate(9267.563 -2476.85)" fill="#0359af"/><path d="M74.384,39.972a2.82,2.82,0,0,1,2.879-2.78,2.835,2.835,0,1,1-.125,5.667A2.78,2.78,0,0,1,74.384,39.972Z" transform="translate(9237.133 -2385.481)" fill="#0359af"/><path d="M74.385,188.667a2.819,2.819,0,0,1,2.806-2.857,2.874,2.874,0,0,1,2.882,2.8,2.908,2.908,0,0,1-2.8,2.9A2.845,2.845,0,0,1,74.385,188.667Z" transform="translate(9237.132 -2507.281)" fill="#255b99"/><path d="M575.227,290.121c1.359-1.185,2.678-1.138,3.759.141a2.469,2.469,0,0,1,2.121-.973,1.767,1.767,0,0,1,1.938,1.859c.049,1.324,0,2.652.025,3.978.006.384-.191.4-.48.4s-.491,0-.484-.394c.021-1.19.011-2.38.006-3.57,0-.96-.341-1.415-1.091-1.492a1.5,1.5,0,0,0-1.805,1.3,28.441,28.441,0,0,0-.078,3.5c-.009.315.113.663-.462.666-.547,0-.485-.3-.483-.637.005-1.1.011-2.21,0-3.315-.01-1.012-.342-1.449-1.122-1.521a1.475,1.475,0,0,0-1.753,1.291,21.527,21.527,0,0,0-.095,3.679c0,.4-.135.491-.512.5-.413.006-.436-.2-.435-.514.009-1.706,0-3.411.013-5.117,0-.179-.18-.484.267-.512.38-.024.551.087.586.452A1.51,1.51,0,0,0,575.227,290.121Z" transform="translate(8827.462 -2592.068)" fill="#707f86"/><path d="M884.127,290.215a2.649,2.649,0,0,1,2.754-.782c.921.2,1.366.772,1.431,1.992.067,1.267.013,2.54.023,3.81,0,.484-.347.307-.589.347-.326.054-.381-.092-.376-.395.017-1.1,0-2.2,0-3.293,0-1.246-.319-1.684-1.265-1.762a1.621,1.621,0,0,0-1.939,1.528,27.146,27.146,0,0,0-.069,3.266c-.011.31.137.665-.447.674-.616.009-.485-.374-.486-.7-.005-1.607-.009-3.213.01-4.82,0-.213-.215-.557.276-.621.451-.06.549.159.571.52A1.015,1.015,0,0,0,884.127,290.215Z" transform="translate(8574.328 -2592.127)" fill="#707f86"/><path d="M290.43,290.337a2.592,2.592,0,0,1,2.489-.926,1.664,1.664,0,0,1,1.665,1.5,38.431,38.431,0,0,1,.07,4.454c0,.4-.339.221-.54.254-.277.046-.389-.085-.386-.369.01-.873.005-1.746,0-2.618,0-.377.008-.755-.017-1.13-.057-.847-.39-1.211-1.171-1.314a1.664,1.664,0,0,0-1.868.915,3.706,3.706,0,0,0-.209,1.459c.006.869-.013,1.738.008,2.607.009.375-.14.461-.49.467-.372.007-.471-.118-.468-.477.016-1.724,0-3.449.015-5.173,0-.187-.163-.495.283-.489.321,0,.55.024.552.413A3.9,3.9,0,0,0,290.43,290.337Z" transform="translate(9060.833 -2592.168)" fill="#707f86"/><path d="M113.845,282.96c0,1.087-.022,2.175.012,3.261.012.395-.126.463-.47.465s-.5-.065-.492-.456c.018-2.083-.007-4.167.019-6.25.006-.49-.122-.672-.626-.632-.533.042-1.071,0-1.606.013-.323.009-.407-.145-.4-.436,0-.276.05-.453.387-.452q2.709.013,5.417,0c.345,0,.383.167.379.442s-.027.461-.378.449c-.595-.02-1.192.02-1.785-.014-.383-.022-.458.131-.453.47.016,1.047.006,2.095.006,3.142Z" transform="translate(9207.716 -2583.221)" fill="#718088"/><path d="M354.195,295.691a4.753,4.753,0,0,1-1.408-.213.493.493,0,0,1-.42-.494c-.017-.394.045-.537.478-.369a3.365,3.365,0,0,0,2.2.208c.377-.11.717-.274.754-.728a.853.853,0,0,0-.55-.9c-.591-.272-1.2-.516-1.78-.8a1.669,1.669,0,0,1-1.076-1.1,1.474,1.474,0,0,1,1.007-1.788,4.356,4.356,0,0,1,2.8.045c.2.064.432.157.268.464-.12.225-.169.456-.553.329a3.153,3.153,0,0,0-1.858-.207c-.354.1-.707.185-.776.62-.076.482.226.733.61.9.541.242,1.095.455,1.633.7.9.414,1.282.968,1.2,1.7a1.745,1.745,0,0,1-1.587,1.524A9.122,9.122,0,0,1,354.195,295.691Z" transform="translate(9009.321 -2592.095)" fill="#707f86"/><path d="M408.207,281.366c0,.754-.021,1.509.008,2.262.016.406-.181.438-.5.444s-.446-.1-.442-.44c.016-1.448-.015-2.9.018-4.345.011-.488-.117-.689-.616-.631-.2.023-.487.08-.515-.238-.025-.276.252-.278.428-.308.529-.092.7-.342.717-.915.064-1.817,1.479-2.145,2.817-1.781.121.033.3.055.206.266-.083.184-.032.462-.332.494a.916.916,0,0,1-.234-.038c-1.135-.19-1.583.212-1.554,1.365.008.32.083.484.451.426.228-.036.472.04.7.012.284-.034.407.057.421.34.015.314-.128.389-.427.4-1.144.024-1.144.036-1.144,1.2Q408.208,280.622,408.207,281.366Z" transform="translate(8965.229 -2580.608)" fill="#707f86"/><path d="M721.86,289.412a3.068,3.068,0,0,1,1,.121c.243.066.543.08.419.478-.1.318-.2.49-.625.368-1.678-.485-2.583.162-2.727,1.9a4.808,4.808,0,0,0,.008.82,1.793,1.793,0,0,0,2.347,1.8,2.076,2.076,0,0,1,.406-.079c.2.008.471-.325.585.025a.55.55,0,0,1-.452.792c-1.657.358-3.561.029-3.856-2.417a4.7,4.7,0,0,1,.175-2.053A2.555,2.555,0,0,1,721.86,289.412Z" transform="translate(8708.897 -2592.184)" fill="#707f86"/><path d="M1182.976,286.259c0-.515-.023-1.032.007-1.545.023-.4-.079-.6-.517-.535-.139.02-.334.043-.34-.209,0-.174.025-.321.223-.361.583-.117.747-.564.87-1.064.06-.246.062-.611.481-.514.39.09.157.423.206.644a1.747,1.747,0,0,1,.007.415c-.008.272.083.391.389.36.347-.035.7,0,1.05,0,.232,0,.374.045.359.326-.013.239-.016.448-.343.407a1.325,1.325,0,0,0-.178,0c-1.269.017-1.274.017-1.281,1.267,0,.792-.007,1.584.023,2.375.033.876.446,1.2,1.3,1.107.173-.019.448-.24.491.167.033.311-.02.514-.4.578-1.526.253-2.329-.392-2.347-1.929C1182.971,287.25,1182.976,286.755,1182.976,286.259Z" transform="translate(8329.282 -2586.126)" fill="#707f86"/><path d="M54.456,15.561a1.714,1.714,0,1,1-.036,3.428,1.714,1.714,0,0,1,.036-3.428Z" transform="translate(9254.863 -2367.753)" fill="#0359af"/><path d="M186.168,17.276a1.75,1.75,0,0,1-1.761,1.713,1.727,1.727,0,0,1-1.664-1.683,1.712,1.712,0,1,1,3.425-.03Z" transform="translate(9148.327 -2367.753)" fill="#0359af"/><path d="M223.271,184.471a1.728,1.728,0,0,1-1.715,1.693,1.717,1.717,0,0,1-.015-3.434A1.726,1.726,0,0,1,223.271,184.471Z" transform="translate(9117.92 -2504.756)" fill="#0359af"/><path d="M19.037,54.37a1.682,1.682,0,0,1-1.708,1.735,1.716,1.716,0,1,1,1.708-1.735Z" transform="translate(9285.267 -2398.169)" fill="#0359af"/><path d="M223.269,54.39a1.714,1.714,0,1,1-3.427,0,1.775,1.775,0,0,1,1.718-1.7A1.751,1.751,0,0,1,223.269,54.39Z" transform="translate(9117.922 -2398.176)" fill="#0359af"/><path d="M186.151,221.733a1.748,1.748,0,0,1-1.729,1.679,1.7,1.7,0,1,1,1.729-1.679Z" transform="translate(9148.343 -2535.303)" fill="#255b9a"/><path d="M19.023,184.46a1.677,1.677,0,0,1-1.676,1.7,1.708,1.708,0,0,1-1.713-1.744,1.745,1.745,0,0,1,1.728-1.686A1.706,1.706,0,0,1,19.023,184.46Z" transform="translate(9285.281 -2504.758)" fill="#0359af"/><path d="M54.451,223.413a1.707,1.707,0,1,1,1.724-1.679A1.722,1.722,0,0,1,54.451,223.413Z" transform="translate(9254.856 -2535.302)" fill="#255b9a"/><path d="M1296.933,279.96c0,1.286-.015,2.573.01,3.859.008.407-.14.49-.512.484-.355-.006-.441-.077-.438-.465.019-2.6-.005-5.2-.018-7.8,0-.314.065-.487.456-.475.365.011.519.07.511.48C1296.917,277.348,1296.933,278.654,1296.933,279.96Z" transform="translate(8235.977 -2580.837)" fill="#707f86"/><path d="M177.219,290.6a2.219,2.219,0,0,1,2.244-1.242c.217.023.415.042.35.332-.051.227.028.512-.389.535-1.611.09-2.174.714-2.175,2.351,0,.866-.007,1.733.014,2.6.008.354-.144.431-.461.418-.3-.012-.53.013-.525-.419.02-1.784.008-3.569.008-5.354,0-.2-.019-.4.306-.358.224.03.491-.089.511.3C177.114,290,177.165,290.229,177.219,290.6Z" transform="translate(9153.626 -2592.134)" fill="#718087"/><path d="M523.454,290.59a2.308,2.308,0,0,1,2.2-1.239c.3.027.435.1.4.42-.03.293-.094.455-.459.451a1.886,1.886,0,0,0-2.089,2.033c-.021.951-.017,1.9,0,2.855.007.351-.085.493-.463.486-.344-.007-.488-.077-.484-.46.019-1.745.008-3.49.009-5.234,0-.234-.057-.468.348-.449.316.015.491.047.472.408A6.347,6.347,0,0,0,523.454,290.59Z" transform="translate(8869.823 -2592.129)" fill="#707f87"/><path d="M777.922,293.025c0,.869-.01,1.738.005,2.606.005.316-.069.471-.425.452-.3-.016-.526-.006-.522-.426q.027-2.638,0-5.276c0-.4.185-.425.508-.44.342-.016.444.083.438.419-.018.888-.006,1.777-.006,2.666Z" transform="translate(8661.319 -2592.619)" fill="#728188"/><path d="M1042.621,293.03c0,.873-.021,1.747.009,2.619.014.407-.175.44-.5.443s-.463-.06-.461-.415q.019-2.665,0-5.33c0-.394.221-.378.5-.394.3-.017.476.02.465.4C1042.6,291.244,1042.621,292.137,1042.621,293.03Z" transform="translate(8444.395 -2592.629)" fill="#707f86"/><path d="M1144.489,292.994c0-.871.01-1.742-.005-2.612-.005-.315.048-.471.423-.436.3.028.533,0,.529.42q-.024,2.662,0,5.324c0,.4-.219.379-.494.392-.312.014-.469-.053-.459-.417C1144.5,294.775,1144.489,293.885,1144.489,292.994Z" transform="translate(8360.134 -2592.622)" fill="#707f86"/><path d="M830.9,275.01a8.308,8.308,0,0,1-1.465,1.72.542.542,0,0,1-.428.166c-.11-.007-.258.055-.325-.068s.032-.226.094-.324c.263-.416.513-.842.8-1.241C829.9,274.816,830.372,275.142,830.9,275.01Z" transform="translate(8618.966 -2580.385)" fill="#73838c"/><path d="M1144.03,277.878c.044-.288.127-.614.526-.623a.559.559,0,0,1,.583.612.541.541,0,0,1-.56.622C1144.226,278.488,1144.055,278.259,1144.03,277.878Z" transform="translate(8360.503 -2582.225)" fill="#73828b"/><path d="M1041.433,278.127c-.017-.539.145-.807.524-.808a.537.537,0,0,1,.56.618c-.015.351-.19.614-.578.608A.487.487,0,0,1,1041.433,278.127Z" transform="translate(8444.588 -2582.277)" fill="#73828b"/><path d="M776.713,277.854a.472.472,0,0,1,.528-.532.614.614,0,0,1-.025,1.223C776.85,278.541,776.722,278.284,776.713,277.854Z" transform="translate(8661.541 -2582.279)" fill="#72828b"/><path d="M433.454,122.11a18.224,18.224,0,0,0-.139-2.191c-.431-3.476-2.1-5.46-5.391-6.278a17.271,17.271,0,0,0-8.53.037,6.58,6.58,0,0,0-5.438,6.051c-.052.4.06.46.409.455,1.146-.015,2.292-.022,3.437,0a.679.679,0,0,0,.8-.547A4.132,4.132,0,0,1,422,116.677a8.3,8.3,0,0,1,1.3-.115,6.4,6.4,0,0,1,3.908.959,3.017,3.017,0,0,1-.289,5.069,11.422,11.422,0,0,1-3.605.925,31.668,31.668,0,0,0-6.147,1.3,5.7,5.7,0,0,0-3.607,3.375,8.535,8.535,0,0,0-.371,4.57,4.983,4.983,0,0,0,3.176,3.926,10.521,10.521,0,0,0,3.9.661,9.449,9.449,0,0,0,6.381-1.984c.714-.59,1.223-1.38,1.985-2.092,0,1.037.025,1.946-.011,2.853-.018.463.109.615.586.6,1.189-.033,2.38-.038,3.569,0,.54.018.7-.129.7-.687C433.45,131.4,433.466,126.755,433.454,122.11Zm-5.021,6.934a6.376,6.376,0,0,1-6.741,5.274c-1.459-.051-2.783-.4-3.433-1.872a3.988,3.988,0,0,1,1.756-5.2,12.665,12.665,0,0,1,2.923-.963c.5-.113,1.007-.215,1.514-.3a5.534,5.534,0,0,0,3.76-2.028,1.37,1.37,0,0,1,.265-.229A38.093,38.093,0,0,1,428.434,129.045Z" transform="translate(8959.592 -2447.711)" fill="#0359af"/><path d="M757.522,125.861a24.87,24.87,0,0,0-.8-5.277c-.929-3.183-2.689-5.631-5.976-6.7a13.14,13.14,0,0,0-5.76-.449c-4.233.528-7.183,2.737-8.481,6.837a16.886,16.886,0,0,0,.5,11.584,8.284,8.284,0,0,0,5.1,4.838,14.863,14.863,0,0,0,5.67.8,9.968,9.968,0,0,0,6.563-2.539,9.372,9.372,0,0,0,2.484-3.707c-1.62,0-3.166,0-4.712,0a.364.364,0,0,0-.367.238c-1.239,2.655-5.977,3.376-8.524,1.284a7.474,7.474,0,0,1-2.566-5.667c-.052-.8-.044-.8.764-.8q7.742,0,15.483,0C757.2,126.294,757.56,126.412,757.522,125.861Zm-5.561-2.046c-1.785-.018-3.57-.008-5.355-.008-1.765,0-3.53-.01-5.295.007-.409,0-.535-.08-.495-.532a7.7,7.7,0,0,1,1.7-4.587,5.623,5.623,0,0,1,9.309,1.5,11.621,11.621,0,0,1,.634,3.127C752.5,123.724,752.341,123.82,751.961,123.816Z" transform="translate(8695.14 -2447.861)" fill="#0359af"/><path d="M954.334,125.876a20.847,20.847,0,0,0-1.287-6.73,8.663,8.663,0,0,0-5.007-5.108,12.8,12.8,0,0,0-6.38-.61,9.447,9.447,0,0,0-8.391,6.964,17.249,17.249,0,0,0,.313,10.873,8.539,8.539,0,0,0,5.536,5.489,14.374,14.374,0,0,0,5.629.708,9.581,9.581,0,0,0,8.7-5.728c.211-.445.114-.526-.337-.518-1.191.021-2.383.031-3.573,0-.56-.016-.981.06-1.228.646a2.24,2.24,0,0,1-.614.715,6.266,6.266,0,0,1-7.7.136,7.586,7.586,0,0,1-2.546-5.685c-.043-.582.071-.779.712-.768,2.58.043,5.162.018,7.742.018h7.921C954.092,126.275,954.363,126.342,954.334,125.876Zm-5.491-2.081c-1.8-.02-3.608-.009-5.412-.009-1.745,0-3.489-.011-5.234.008-.431,0-.6-.041-.562-.569A7.018,7.018,0,0,1,940.047,118a5.665,5.665,0,0,1,9.072,3.678,16.41,16.41,0,0,1,.158,1.654C949.305,123.692,949.218,123.8,948.843,123.795Z" transform="translate(8533.835 -2447.839)" fill="#0359af"/><path d="M1083.312,294.737c-.515-.022-1.03-.009-1.546-.017-.341-.006-.683-.084-.665-.5a.7.7,0,0,1,.661-.718c.235-.025.477.007.714-.01a1.9,1.9,0,0,0,1.935-2.477c-.219-.668-.072-.844.56-.826.243.007.273-.166.276-.366,0-.231-.156-.271-.313-.261-.943.061-1.879-.079-2.818-.089a1.955,1.955,0,0,0-2.029,1.161,2.1,2.1,0,0,0,.634,2.506c.128.118.216.158.036.346-.65.675-.656,1-.09,1.767-.881.382-1.284.915-1.23,1.6a1.638,1.638,0,0,0,1.448,1.507,5.053,5.053,0,0,0,2.979-.183,1.821,1.821,0,0,0,1.275-2.083C1084.994,295.255,1084.366,294.781,1083.312,294.737Zm-2.472-3.217a1.216,1.216,0,0,1,1.35-1.362c.942,0,1.387.41,1.4,1.3a1.189,1.189,0,0,1-1.327,1.372A1.247,1.247,0,0,1,1080.84,291.52Zm3.05,5.733a2.566,2.566,0,0,1-1.846.484,2.854,2.854,0,0,1-.937-.1.906.906,0,0,1-.755-.866.978.978,0,0,1,.726-1.089,5.657,5.657,0,0,1,2.7.02C1084.4,295.855,1084.446,296.765,1083.89,297.253Z" transform="translate(8413.443 -2592.237)" fill="#707f86"/><path d="M976.331,280.431a3.332,3.332,0,0,0-1.965-1.7,13.507,13.507,0,0,0-3.656-.272c-.438-.024-.527.149-.519.547.023,1.17.008,2.341.008,3.511,0,1.21.018,2.421-.01,3.63-.01.428.136.542.542.526.753-.029,1.508.014,2.261-.016a4.067,4.067,0,0,0,2.425-.852A4.763,4.763,0,0,0,976.331,280.431Zm-1.946,4.944a5.282,5.282,0,0,1-3.006.463c-.315-.007-.213-.284-.215-.458-.009-.951,0-1.9,0-2.853,0-.931,0-1.863,0-2.794,0-.176-.085-.424.247-.423a6.409,6.409,0,0,1,2.781.305,2.472,2.472,0,0,1,1.261,1.279A3.72,3.72,0,0,1,974.385,285.375Z" transform="translate(8502.975 -2583.207)" fill="#707f86"/><path d="M230.65,291.289a1.691,1.691,0,0,0-1.546-1.859,4.144,4.144,0,0,0-2.217.27c-.214.092-.536.1-.379.51.136.358.338.385.634.238a3.435,3.435,0,0,1,1.087-.283,1.214,1.214,0,0,1,1.506,1.241c.031.408-.078.553-.51.556a6.963,6.963,0,0,0-2.226.293,1.758,1.758,0,0,0-1.279,1.958,1.7,1.7,0,0,0,1.751,1.529,2.429,2.429,0,0,0,2.186-.862.374.374,0,0,1,.206.346c.012.343.2.416.506.4.356-.018.285-.264.286-.467C230.657,293.869,230.673,292.579,230.65,291.289Zm-.96,2.189a1.728,1.728,0,0,1-2.043,1.5c-.474-.083-.869-.276-.933-.832a1.077,1.077,0,0,1,.672-1.24,4.012,4.012,0,0,1,1.349-.256C229.792,292.63,229.83,292.677,229.689,293.479Z" transform="translate(9113.119 -2592.167)" fill="#707f86"/><path d="M661.861,294.552a34.492,34.492,0,0,0-.08-3.738,1.469,1.469,0,0,0-1.261-1.317,4.261,4.261,0,0,0-2.5.245c-.306.123-.393.22-.287.544.125.381.343.3.586.185a3.9,3.9,0,0,1,1.087-.285,1.218,1.218,0,0,1,1.539,1.264c.025.375-.062.525-.474.531a6.546,6.546,0,0,0-2.446.365,1.735,1.735,0,0,0-1.1,1.9,1.669,1.669,0,0,0,1.638,1.51,2.48,2.48,0,0,0,2.389-.981,5.035,5.035,0,0,1,.128.5c.035.289.181.385.476.378.348-.008.308-.224.309-.442S661.868,294.769,661.861,294.552Zm-.945-1.243a1.756,1.756,0,0,1-2.119,1.68.932.932,0,0,1-.879-.891,1.051,1.051,0,0,1,.682-1.186,5.909,5.909,0,0,1,1.8-.265C660.9,292.494,660.943,292.83,660.916,293.308Z" transform="translate(8759.73 -2592.186)" fill="#707f86"/><path d="M1237.154,291.034a1.5,1.5,0,0,0-1.3-1.546,4.106,4.106,0,0,0-2.611.278c-.284.117-.256.288-.16.52s.211.353.483.2a3.283,3.283,0,0,1,1.2-.313,1.172,1.172,0,0,1,1.49,1.175c.063.5-.1.608-.568.614a5.624,5.624,0,0,0-2.436.425,1.688,1.688,0,0,0-.974,1.911,1.593,1.593,0,0,0,1.345,1.4,2.511,2.511,0,0,0,2.671-.968,5.389,5.389,0,0,1,.137.59c.031.318.249.3.476.3.267,0,.27-.167.269-.357C1237.17,293.852,1237.193,292.442,1237.154,291.034Zm-.918,2.391a1.747,1.747,0,0,1-2.462,1.435.912.912,0,0,1-.54-.855,1.053,1.053,0,0,1,.562-1.034,4.027,4.027,0,0,1,1.584-.332C1236.289,292.623,1236.315,292.651,1236.237,293.425Z" transform="translate(8288.199 -2592.164)" fill="#707f86"/><path d="M462.009,292.054a2.845,2.845,0,0,0-4.772-2.084,3.454,3.454,0,0,0-.835,3.023,2.759,2.759,0,0,0,3.693,2.493c1.233-.369,1.916-1.462,1.916-3.075A3.043,3.043,0,0,0,462.009,292.054Zm-1.132,1.546a1.705,1.705,0,0,1-1.683,1.251,1.738,1.738,0,0,1-1.73-1.344,3.773,3.773,0,0,1-.125-1.116,3.707,3.707,0,0,1,.1-.939,1.645,1.645,0,0,1,1.759-1.423,1.706,1.706,0,0,1,1.724,1.349A3.991,3.991,0,0,1,460.876,293.6Z" transform="translate(8924.082 -2592.029)" fill="#707f86"/><path d="M822.644,291.837a2.7,2.7,0,0,0-2.274-2.468,2.647,2.647,0,0,0-3.158,1.859,4.293,4.293,0,0,0-.065,2.288,2.77,2.77,0,0,0,3.593,2.089,2.815,2.815,0,0,0,1.908-3.059C822.648,292.31,822.668,292.071,822.644,291.837Zm-1.077,1.822a1.705,1.705,0,0,1-1.649,1.293,1.737,1.737,0,0,1-1.765-1.305,3.924,3.924,0,0,1-.051-2.054,1.785,1.785,0,0,1,3.5-.045,7.134,7.134,0,0,1,.132.861A5.479,5.479,0,0,1,821.567,293.659Z" transform="translate(8628.502 -2592.127)" fill="#707f86"/></g></svg>